<svg width="45" height="45" viewBox="0 0 45 45" fill="none" xmlns="http://www.w3.org/2000/svg">
<g id="FaceBook Icon" clip-path="url(#clip0_720_2719)">
<path id="Vector" d="M22.4864 45C10.1072 45 0.0664062 34.9247 0.0664062 22.4969C0.0664062 10.0753 10.1072 0 22.4864 0C34.8717 0 44.9063 10.0753 44.9063 22.4969C44.9063 34.9247 34.8655 44.9937 22.4864 44.9937V45Z" fill="#FFA573"/>
<path id="Vector_2" d="M19.0732 36.0978H24.5313V22.3838H28.3388L28.7452 17.7916H24.5313V15.1756C24.5313 14.0902 24.7501 13.6636 25.7942 13.6636H28.7452V8.89575H24.9627C20.8988 8.89575 19.067 10.69 19.067 14.1279V17.7916H16.2285V22.4403H19.067V36.0978H19.0732Z" fill="#FFEED4"/>
</g>
<defs>
<clipPath id="clip0_720_2719">
<rect width="44.8462" height="45" fill="white" transform="translate(0.0664062)"/>
</clipPath>
</defs>
</svg>
