<svg width="47" height="45" viewBox="0 0 47 45" fill="none" xmlns="http://www.w3.org/2000/svg">
<g clip-path="url(#clip0_720_2722)">
<path d="M23.8426 45C11.1821 45 0.913086 34.9247 0.913086 22.4969C0.913086 10.0753 11.1821 0 23.8426 0C36.5094 0 46.7721 10.0753 46.7721 22.4969C46.7721 34.9247 36.503 44.9937 23.8426 44.9937V45Z" fill="#FFA573"/>
<g clip-path="url(#clip1_720_2722)">
<path fill-rule="evenodd" clip-rule="evenodd" d="M24.0479 10C16.8654 10 11.0479 15.8175 11.0479 23C11.0479 28.7525 14.7691 33.6113 19.9366 35.3338C20.5866 35.4475 20.8304 35.0575 20.8304 34.7163C20.8304 34.4075 20.8141 33.3838 20.8141 32.295C17.5479 32.8963 16.7029 31.4987 16.4429 30.7675C16.2966 30.3937 15.6629 29.24 15.1104 28.9312C14.6554 28.6875 14.0054 28.0862 15.0941 28.07C16.1179 28.0537 16.8491 29.0125 17.0929 29.4025C18.2629 31.3687 20.1316 30.8163 20.8791 30.475C20.9929 29.63 21.3341 29.0612 21.7079 28.7362C18.8154 28.4112 15.7929 27.29 15.7929 22.3175C15.7929 20.9037 16.2966 19.7337 17.1254 18.8237C16.9954 18.4987 16.5404 17.1662 17.2554 15.3787C17.2554 15.3787 18.3441 15.0375 20.8304 16.7113C21.8704 16.4188 22.9754 16.2725 24.0804 16.2725C25.1854 16.2725 26.2904 16.4188 27.3304 16.7113C29.8166 15.0213 30.9054 15.3787 30.9054 15.3787C31.6204 17.1662 31.1654 18.4987 31.0354 18.8237C31.8641 19.7337 32.3679 20.8875 32.3679 22.3175C32.3679 27.3062 29.3291 28.4112 26.4366 28.7362C26.9079 29.1425 27.3141 29.9225 27.3141 31.1413C27.3141 32.88 27.2979 34.2775 27.2979 34.7163C27.2979 35.0575 27.5416 35.4638 28.1916 35.3338C33.3266 33.6113 37.0479 28.7362 37.0479 23C37.0479 15.8175 31.2304 10 24.0479 10Z" fill="#FFEED4"/>
</g>
</g>
<defs>
<clipPath id="clip0_720_2722">
<rect width="45.8654" height="45" fill="white" transform="translate(0.913086)"/>
</clipPath>
<clipPath id="clip1_720_2722">
<rect width="26" height="26" fill="white" transform="translate(11.0479 10)"/>
</clipPath>
</defs>
</svg>
