<svg width="46" height="44" viewBox="0 0 46 44" fill="none" xmlns="http://www.w3.org/2000/svg">
<g id="Google Icon" clip-path="url(#clip0_720_2714)">
<path id="Vector" d="M22.6407 44C10.2615 44 0.220703 34.1486 0.220703 21.9969C0.220703 9.85139 10.2615 0 22.6407 0C35.026 0 45.0606 9.85139 45.0606 21.9969C45.0606 34.1486 35.0198 43.9939 22.6407 43.9939V44Z" fill="#FFA573"/>
<g id="Group">
<path id="Vector_2" d="M25.4478 21.4264H16.3885L16.401 23.9721H22.5093C21.7841 27.0698 19.5583 28.9714 16.5636 28.9714C12.6373 28.9714 9.45497 25.8491 9.45497 21.9969C9.45497 18.1447 12.6373 15.0224 16.5636 15.0224C18.433 15.0224 20.1273 15.7278 21.3964 16.881L23.4034 15.188C21.6465 13.4889 19.2332 12.4399 16.5698 12.4399C11.1868 12.4399 6.8291 16.7216 6.8291 21.9969C6.8291 27.2722 11.1931 31.5538 16.5698 31.5538C21.9466 31.5538 25.4665 27.6893 25.4665 22.4079L25.454 21.4203L25.4478 21.4264Z" fill="#FFEED4"/>
<path id="Vector_3" d="M38.4654 21.5307H34.7266V17.8625H32.3384V21.5307H28.5996V23.874H32.3384V27.5422H34.7266V23.874H38.4654V21.5307Z" fill="#FFEED4"/>
</g>
</g>
<defs>
<clipPath id="clip0_720_2714">
<rect width="44.8462" height="44" fill="white" transform="translate(0.220703)"/>
</clipPath>
</defs>
</svg>
