<svg width="44" height="44" viewBox="0 0 44 44" fill="none" xmlns="http://www.w3.org/2000/svg">
<g clip-path="url(#clip0_448_4860)">
<path d="M21.8349 44.0029C33.7559 44.0029 43.4198 34.339 43.4198 22.4179C43.4198 10.4969 33.7559 0.833008 21.8349 0.833008C9.9139 0.833008 0.25 10.4969 0.25 22.4179C0.25 34.339 9.9139 44.0029 21.8349 44.0029Z" fill="#FFF8EF"/>
<path d="M21.7175 11.4939C25.3176 11.4939 25.7426 11.5066 27.1637 11.5732C28.4768 11.6335 29.1905 11.8523 29.6663 12.0363C30.2943 12.2805 30.7448 12.5724 31.2174 13.045C31.69 13.5176 31.9818 13.9648 32.226 14.596C32.41 15.0718 32.6289 15.7855 32.6891 17.0987C32.7526 18.5197 32.7684 18.9479 32.7684 22.5449C32.7684 26.1418 32.7558 26.57 32.6891 27.9911C32.6289 29.3042 32.41 30.0179 32.226 30.4937C31.9818 31.1217 31.69 31.5722 31.2174 32.0448C30.7448 32.5174 30.2975 32.8092 29.6663 33.0534C29.1905 33.2374 28.4768 33.4563 27.1637 33.5165C25.7426 33.58 25.3176 33.5958 21.7175 33.5958C18.1173 33.5958 17.6923 33.5832 16.2713 33.5165C14.9581 33.4563 14.2444 33.2374 13.7686 33.0534C13.1406 32.8092 12.6902 32.5174 12.2176 32.0448C11.745 31.5722 11.4531 31.1249 11.2089 30.4937C11.0249 30.0179 10.8061 29.3042 10.7458 27.9911C10.6824 26.57 10.6665 26.1418 10.6665 22.5449C10.6665 18.9479 10.6792 18.5197 10.7458 17.0987C10.8061 15.7855 11.0249 15.0718 11.2089 14.596C11.4531 13.968 11.745 13.5176 12.2176 13.045C12.6902 12.5724 13.1374 12.2805 13.7686 12.0363C14.2444 11.8523 14.9581 11.6335 16.2713 11.5732C17.6923 11.5098 18.1205 11.4939 21.7175 11.4939ZM21.7175 9.06421C18.0571 9.06421 17.5972 9.08007 16.1603 9.14668C14.7266 9.21329 13.7464 9.4385 12.8868 9.77472C12.0019 10.1205 11.2501 10.5804 10.4984 11.329C9.74982 12.0775 9.28672 12.8293 8.94415 13.7174C8.6111 14.5738 8.38272 15.554 8.31611 16.9908C8.2495 18.4277 8.23364 18.8876 8.23364 22.548C8.23364 26.2084 8.2495 26.6684 8.31611 28.1052C8.38272 29.539 8.60793 30.5191 8.94415 31.3787C9.28989 32.2636 9.74982 33.0154 10.4984 33.7671C11.247 34.5157 11.9987 34.9788 12.8868 35.3214C13.7433 35.6544 14.7234 35.8828 16.1603 35.9494C17.5972 36.016 18.0571 36.0319 21.7175 36.0319C25.3779 36.0319 25.8378 36.016 27.2747 35.9494C28.7084 35.8828 29.6885 35.6576 30.5481 35.3214C31.4331 34.9756 32.1848 34.5157 32.9366 33.7671C33.6851 33.0186 34.1482 32.2668 34.4908 31.3787C34.8239 30.5223 35.0522 29.5421 35.1188 28.1052C35.1855 26.6684 35.2013 26.2084 35.2013 22.548C35.2013 18.8876 35.1855 18.4277 35.1188 16.9908C35.0522 15.5571 34.827 14.577 34.4908 13.7174C34.1451 12.8324 33.6851 12.0807 32.9366 11.329C32.188 10.5804 31.4362 10.1173 30.5481 9.77472C29.6917 9.44167 28.7116 9.21329 27.2747 9.14668C25.8378 9.08007 25.3779 9.06421 21.7175 9.06421Z" fill="#EF693C"/>
<path d="M21.7175 15.6238C17.8954 15.6238 14.7964 18.7227 14.7964 22.5449C14.7964 26.3671 17.8954 29.466 21.7175 29.466C25.5397 29.466 28.6386 26.3671 28.6386 22.5449C28.6386 18.7227 25.5397 15.6238 21.7175 15.6238ZM21.7175 27.0395C19.2371 27.0395 17.2229 25.0285 17.2229 22.5449C17.2229 20.0613 19.2339 18.0503 21.7175 18.0503C24.2011 18.0503 26.2121 20.0613 26.2121 22.5449C26.2121 25.0285 24.2011 27.0395 21.7175 27.0395Z" fill="#EF693C"/>
<path d="M28.9114 16.9685C29.8048 16.9685 30.5291 16.2443 30.5291 15.3508C30.5291 14.4574 29.8048 13.7332 28.9114 13.7332C28.018 13.7332 27.2937 14.4574 27.2937 15.3508C27.2937 16.2443 28.018 16.9685 28.9114 16.9685Z" fill="#EF693C"/>
</g>
<defs>
<clipPath id="clip0_448_4860">
<rect width="43.1667" height="43.1667" fill="white" transform="translate(0.25 0.833008)"/>
</clipPath>
</defs>
</svg>
