<svg width="188" height="57" viewBox="0 0 188 57" fill="none" xmlns="http://www.w3.org/2000/svg">
<g clip-path="url(#clip0_448_4409)">
<path d="M0.94873 48.9838C9.68739 48.9557 21.553 48.5142 29.2561 44.3235C31.2832 43.1594 32.937 41.5216 34.5868 39.8839C39.5723 34.7258 43.8553 28.7528 47.6366 22.6755C48.062 21.7603 49.6717 19.2354 50.6993 17.9028C58.6873 6.96037 71.7411 0.0762097 85.3368 0.120365C93.0599 0.0240266 101.092 2.03107 107.21 6.99248C113.383 11.8134 117.542 20.6123 114.387 28.2912L113.684 30.6114C112.071 28.7408 110.288 26.7137 108.342 25.1923C104.504 22.0533 99.8196 19.5806 94.8984 19.107C88.7568 18.4687 81.2545 21.1622 77.6378 26.3404C73.704 32.0845 77.0036 39.1975 82.262 42.9225C86.3163 45.9331 91.4744 47.4344 96.5281 47.7354C126.337 47.8559 157.354 48.6828 187.15 48.2492C157.855 49.7385 128.464 49.5097 99.1573 50.1559C96.3956 50.2402 93.6339 50.0275 90.9164 49.4655C81.8927 47.7796 71.9739 40.4258 73.0015 30.2621C73.973 22.1537 82.0613 17.2364 89.4794 15.8676C97.082 14.4908 104.849 17.7061 110.381 22.8361C111.774 24.1206 113.054 25.4372 114.19 26.9746L111.79 27.3479C113.732 20.8371 109.907 14.0814 104.661 10.264C93.5818 2.30804 77.1521 3.60459 65.7762 10.3242C60.6181 13.423 56.0701 17.674 52.6341 22.6354C52.1725 23.2897 51.6988 24.0563 51.3134 24.7428C48.5477 29.0178 45.4328 32.9797 42.0971 36.8171C39.3876 39.8718 36.4373 42.7941 33.1136 45.2106C32.3268 45.8006 31.4237 46.3385 30.5486 46.768C22.0708 50.6537 10.0246 50.176 0.94873 48.9838Z" fill="#FFF8EF"/>
<path d="M83.8395 31.4384H94.7257V35.8097H91.6509V43.874H87.2113V35.8097H83.8354V31.4384H83.8395Z" fill="#FFF8EF" stroke="#FFF8EF"/>
<path d="M96.291 31.4384H100.731V43.874H96.291V31.4384Z" fill="#FFF8EF" stroke="#FFF8EF"/>
<path d="M102.862 31.4384H104.958C106.431 31.4384 112.312 31.4384 112.312 37.62C112.312 43.874 106.86 43.874 105.684 43.874H102.858V31.4384H102.862Z" fill="#FFF8EF" stroke="#FFF8EF"/>
<path d="M118.425 30.9044L125.016 43.8699H111.838L118.425 30.9044Z" fill="#FFF8EF" stroke="#FFF8EF"/>
<path d="M126.172 31.4384H130.611V39.5026H135.087V43.874H126.172V31.4384Z" fill="#FFF8EF" stroke="#FFF8EF"/>
<path d="M141.076 31.4384H150.473V35.8097H145.516V37.7445H149.514V38.5634H145.516V43.874H141.076V31.4384Z" fill="#FFF8EF" stroke="#FFF8EF"/>
<path d="M152.107 31.4384H161.608V35.8097H156.474V37.2146H160.649V38.0335H156.474V39.5067H161.608V43.878H152.107V31.4384Z" fill="#FFF8EF" stroke="#FFF8EF"/>
<path d="M163.049 39.5025C165.394 39.5025 166.212 38.9004 167.525 35.5968C168.661 32.7388 170.206 31.4423 173.137 31.4423H173.739V35.7935H173.723C172.338 35.7935 171.84 37.054 171.114 39.061C169.905 42.3806 167.686 43.8739 164.205 43.8739H163.049V39.5025Z" fill="#FFF8EF" stroke="#FFF8EF"/>
<path d="M174.811 31.4384H185.697V35.8097H182.622V43.874H178.182V35.8097H174.807V31.4384H174.811Z" fill="#FFF8EF" stroke="#FFF8EF"/>
<path d="M106.928 16.9555C100.927 12.2831 93.0556 9.56954 85.4609 10.7136C77.9305 11.8455 71.4679 16.5701 66.3379 21.9851C61.0473 27.6891 57.551 34.7539 52.5053 40.7148C46.6327 47.8398 39.0782 54.7481 29.5688 56.0486C20.3645 57.0883 11.1723 54.9488 2.26904 52.9698C10.0042 53.7124 17.7313 54.8444 25.4705 54.3226C30.5081 54.1178 35.2769 52.3436 39.3752 49.4214C45.6171 44.9978 50.41 38.9446 54.8455 32.7067C57.7959 28.4438 60.6298 23.8396 64.3549 20.1025C69.9666 14.4266 77.1157 9.61369 85.2402 8.86306C93.2162 8.10841 101.288 11.404 106.928 16.9555Z" fill="#FFF8EF"/>
<path d="M86.91 9.96693C83.6627 10.3884 80.8568 12.3714 78.34 14.3343C74.635 17.385 71.6003 21.1903 69.8462 25.6299C67.9355 30.1377 68.3088 34.5853 70.0629 39.1012C71.3474 42.3365 73.2782 45.3912 75.9677 47.6231C76.5336 48.1529 77.4207 48.7029 78.059 49.1404C78.2115 49.2126 78.6571 49.4615 78.8217 49.5378C86.0831 53.1183 94.2719 54.5755 102.336 54.8685C115.338 54.7159 128.954 54.5714 141.939 54.2824C155.141 53.9934 168.38 53.7164 181.566 53.3873C168.36 53.7566 155.158 54.2262 141.951 54.6517C130.712 55.0612 118.581 55.4184 107.33 56.1289C97.3587 56.9357 86.9341 55.9162 77.7057 51.7254C77.5291 51.6291 76.9872 51.3762 76.8146 51.2799C76.064 50.7902 75.0324 50.176 74.366 49.5779C69.9144 46.0094 67.1688 40.6185 66.1492 35.055C65.0734 29.8768 67.0363 24.2972 70.0669 20.1426C73.4388 15.3498 80.8127 9.58158 86.91 9.96693Z" fill="#FFF8EF"/>
<path d="M174.694 54.5755C147.129 55.9081 119.561 57.4857 91.9398 56.8073C86.85 56.5665 81.9528 54.6839 77.6979 51.9503C73.4108 49.2608 69.4128 45.7244 67.1248 41.1323C63.9697 35.059 64.909 27.5125 68.602 21.9209C71.5041 17.5014 75.6748 14.0412 80.3271 11.6047C83.3055 10.0111 86.6212 9.0959 90.001 8.87512L90.1054 10.4767C88.6001 10.6493 87.0306 11.0307 85.5534 11.4963C79.6447 13.4953 74.0451 18.0232 70.6893 23.2375C67.4419 28.3755 66.7475 35.055 69.762 40.4339C72.7124 45.7084 77.8825 49.3572 83.1972 52.0145C85.987 53.3391 89.0216 54.146 92.1044 54.3948C93.4692 54.5153 95.5204 54.5594 96.9173 54.6558C122.728 55.8319 148.86 55.4947 174.694 54.5755Z" fill="#FFF8EF"/>
</g>
<defs>
<clipPath id="clip0_448_4409">
<rect width="186.254" height="57" fill="white" transform="translate(0.916504)"/>
</clipPath>
</defs>
</svg>
