<svg width="209" height="64" viewBox="0 0 209 64" fill="none" xmlns="http://www.w3.org/2000/svg">
<g clip-path="url(#clip0_204_651)">
<path d="M0.0356445 54.9995C9.80238 54.9679 23.064 54.4722 31.6732 49.7668C33.9388 48.4598 35.7872 46.6209 37.6311 44.782C43.2031 38.9905 47.99 32.284 52.2162 25.4603C52.6917 24.4327 54.4907 21.5978 55.6392 20.1015C64.567 7.81527 79.1566 0.0856881 94.3518 0.135266C102.983 0.0270966 111.961 2.28062 118.798 7.85132C125.698 13.2643 130.346 23.1437 126.819 31.7657L126.034 34.3708C124.231 32.2705 122.239 29.9944 120.063 28.2862C115.774 24.7617 110.538 21.9854 105.038 21.4536C98.1741 20.737 89.7892 23.7612 85.747 29.5753C81.3504 36.0248 85.0381 44.0113 90.9152 48.1939C95.4464 51.5741 101.211 53.2598 106.86 53.5978C140.175 53.733 174.841 54.6615 208.143 54.1747C175.402 55.8468 142.553 55.5899 109.798 56.3156C106.712 56.4102 103.625 56.1713 100.588 55.5403C90.5025 53.6474 79.4168 45.3905 80.5653 33.9787C81.6509 24.8744 90.6909 19.3533 98.9817 17.8164C107.479 16.2705 116.16 19.8806 122.342 25.6406C123.899 27.0829 125.33 28.5612 126.599 30.2874L123.917 30.7065C126.088 23.3961 121.813 15.8108 115.949 11.5246C103.567 2.59161 85.2041 4.04738 72.4899 11.5922C66.7249 15.0716 61.6419 19.8446 57.8016 25.4153C57.2857 26.1499 56.7563 27.0108 56.3256 27.7815C53.2345 32.5815 49.7532 37.0299 46.025 41.3386C42.9967 44.7685 39.6993 48.0496 35.9846 50.7629C35.1053 51.4254 34.0959 52.0294 33.1178 52.5116C23.6427 56.8744 10.1792 56.3381 0.0356445 54.9995Z" fill="#FFEED4"/>
<path d="M92.6788 35.2992H104.846V40.2073H101.409V49.262H96.4473V40.2073H92.6743V35.2992H92.6788Z" fill="#FFEED4" stroke="#FFEED4"/>
<path d="M106.595 35.2992H111.557V49.262H106.595V35.2992Z" fill="#FFEED4" stroke="#FFEED4"/>
<path d="M113.94 35.2992H116.281C117.928 35.2992 124.5 35.2992 124.5 42.24C124.5 49.262 118.408 49.262 117.093 49.262H113.935V35.2992H113.94Z" fill="#FFEED4" stroke="#FFEED4"/>
<path d="M131.333 34.6997L138.699 49.2575H123.971L131.333 34.6997Z" fill="#FFEED4" stroke="#FFEED4"/>
<path d="M139.992 35.2992H144.954V44.3538H149.956V49.262H139.992V35.2992Z" fill="#FFEED4" stroke="#FFEED4"/>
<path d="M156.649 35.2992H167.152V40.2073H161.611V42.3797H166.08V43.2992H161.611V49.262H156.649V35.2992Z" fill="#FFEED4" stroke="#FFEED4"/>
<path d="M168.978 35.2992H179.597V40.2073H173.859V41.7848H178.525V42.7042H173.859V44.3583H179.597V49.2665H168.978V35.2992Z" fill="#FFEED4" stroke="#FFEED4"/>
<path d="M181.208 44.3538C183.828 44.3538 184.743 43.6777 186.21 39.9684C187.479 36.7594 189.207 35.3036 192.482 35.3036H193.155V40.1893H193.137C191.589 40.1893 191.033 41.6045 190.221 43.858C188.87 47.5853 186.389 49.262 182.5 49.262H181.208V44.3538Z" fill="#FFEED4" stroke="#FFEED4"/>
<path d="M194.353 35.2992H206.52V40.2073H203.083V49.262H198.121V40.2073H194.348V35.2992H194.353Z" fill="#FFEED4" stroke="#FFEED4"/>
<path d="M96.1107 11.1909C92.4812 11.6642 89.3453 13.8906 86.5323 16.0946C82.3915 19.5199 78.9998 23.7926 77.0393 28.7774C74.9038 33.8388 75.321 38.8326 77.2815 43.903C78.7172 47.5357 80.8751 50.9656 83.8809 53.4715C84.5135 54.0664 85.505 54.6839 86.2183 55.1752C86.3888 55.2563 86.8868 55.5357 87.0707 55.6213C95.1865 59.6416 104.339 61.2777 113.352 61.6067C127.883 61.4354 143.1 61.2732 157.614 60.9487C172.369 60.6242 187.165 60.3132 201.903 59.9436C187.143 60.3582 172.387 60.8856 157.627 61.3633C145.065 61.823 131.508 62.2242 118.933 63.0219C107.789 63.9278 96.1376 62.783 85.8235 58.0777C85.6261 57.9695 85.0204 57.6856 84.8275 57.5774C83.9886 57.0275 82.8356 56.338 82.0909 55.6664C77.1155 51.6597 74.0469 45.6067 72.9074 39.3599C71.705 33.5458 73.8988 27.2811 77.286 22.6163C81.0545 17.2349 89.2959 10.7582 96.1107 11.1909Z" fill="#FFEED4"/>
<path d="M118.484 19.0378C111.777 13.7916 102.979 10.7448 94.4909 12.0293C86.0746 13.3003 78.8516 18.6051 73.118 24.6851C67.2051 31.0896 63.2975 39.022 57.6581 45.715C51.0946 53.715 42.6514 61.4716 32.0233 62.9319C21.7361 64.0992 11.4624 61.6969 1.51172 59.4749C10.1569 60.3088 18.7931 61.5797 27.4427 60.9938C33.0731 60.764 38.4028 58.7719 42.9834 55.4907C49.9596 50.524 55.3163 43.7274 60.2737 36.7234C63.5711 31.9369 66.7385 26.7673 70.9018 22.5713C77.1737 16.1983 85.1638 10.7944 94.2442 9.95157C103.159 9.10425 112.181 12.8045 118.484 19.0378Z" fill="#FFEED4"/>
<path d="M194.222 61.2777C163.415 62.7741 132.603 64.5453 101.732 63.7836C96.0436 63.5132 90.5702 61.3994 85.8147 58.3301C81.0233 55.3104 76.5549 51.3397 73.9977 46.1836C70.4715 39.3645 71.5213 30.8913 75.6487 24.6129C78.8923 19.6507 83.5536 15.7656 88.7533 13.0298C92.0821 11.2406 95.7878 10.2129 99.5653 9.96506L99.682 11.7634C97.9996 11.9572 96.2454 12.3853 94.5945 12.9082C87.9906 15.1527 81.7322 20.2366 77.9816 26.0913C74.3522 31.8603 73.576 39.36 76.9453 45.3994C80.2427 51.3217 86.0211 55.4186 91.961 58.4022C95.079 59.8896 98.4707 60.7955 101.916 61.0749C103.442 61.2101 105.734 61.2597 107.295 61.3679C136.142 62.6884 165.348 62.3098 194.222 61.2777Z" fill="#FFEED4"/>
</g>
<defs>
<clipPath id="clip0_204_651">
<rect width="208.166" height="64" fill="white"/>
</clipPath>
</defs>
</svg>
