<svg width="45" height="44" viewBox="0 0 45 44" fill="none" xmlns="http://www.w3.org/2000/svg">
<g clip-path="url(#clip0_448_4866)">
<path d="M22.5001 43.9997C34.4202 43.9997 44.0834 34.3365 44.0834 22.4163C44.0834 10.4962 34.4202 0.833008 22.5001 0.833008C10.5799 0.833008 0.916748 10.4962 0.916748 22.4163C0.916748 34.3365 10.5799 43.9997 22.5001 43.9997Z" fill="#FFF8EF"/>
<path d="M18.1386 34.8482C28.6808 34.8482 34.446 26.1158 34.446 18.5408C34.446 18.2914 34.4396 18.0452 34.43 17.799C35.5491 16.99 36.5212 15.9796 37.2886 14.8317C36.2622 15.2889 35.1558 15.5959 33.9983 15.7334C35.1814 15.0235 36.0895 13.9012 36.518 12.5646C35.4116 13.2201 34.1838 13.6998 32.8792 13.9556C31.8336 12.8428 30.3435 12.1458 28.6968 12.1458C25.5313 12.1458 22.9636 14.7134 22.9636 17.8757C22.9636 18.3266 23.0148 18.7614 23.1139 19.1835C18.3496 18.9437 14.1257 16.6639 11.3023 13.1945C10.8098 14.0419 10.5253 15.0267 10.5253 16.0755C10.5253 18.0644 11.5357 19.8198 13.0769 20.8462C12.1368 20.8175 11.2543 20.5585 10.4805 20.13C10.4805 20.1524 10.4805 20.1779 10.4805 20.2035C10.4805 22.979 12.4566 25.2972 15.0785 25.8216C14.5957 25.9527 14.0905 26.023 13.5693 26.023C13.2016 26.023 12.8403 25.9879 12.4917 25.9207C13.2208 28.1974 15.3375 29.8537 17.8444 29.9016C15.8811 31.4397 13.4126 32.3541 10.7267 32.3541C10.2631 32.3541 9.80901 32.3286 9.35815 32.2742C11.8938 33.8986 14.9059 34.8482 18.1418 34.8482" fill="#EF693C"/>
</g>
<defs>
<clipPath id="clip0_448_4866">
<rect width="43.1667" height="43.1667" fill="white" transform="translate(0.916748 0.833008)"/>
</clipPath>
</defs>
</svg>
