<?xml version="1.0" encoding="UTF-8"?>
<svg id="Layer_1" data-name="Layer 1" xmlns="http://www.w3.org/2000/svg" viewBox="0 0 463.9 141.6">
  <defs>
    <style>
      .cls-1 {
        fill: #ffefd6;
      }
    </style>
  </defs>
  <path class="cls-1" d="m0,121.7c21.8,0,51.3-1.2,70.5-11.6,5.1-2.9,9.2-7,13.3-11.1,12.4-12.9,23.1-27.7,32.5-42.9,1.1-2.3,5.1-8.6,7.6-11.9C143.8,17,176.4-.1,210.2,0c19.2-.2,39.2,4.8,54.5,17.1,15.4,12,25.7,33.9,17.9,53.1l-1.8,5.8c-4-4.7-8.5-9.7-13.3-13.5-9.6-7.8-21.2-14-33.5-15.2-15.3-1.6-34,5.1-43,18-9.8,14.3-1.6,32,11.5,41.3,10.1,7.5,23,11.2,35.5,12,74.3.3,151.5,2.4,225.8,1.3-73,3.7-146.2,3.1-219.2,4.8-6.9.2-13.8-.3-20.5-1.7-22.5-4.2-47.2-22.5-44.6-47.8,2.4-20.2,22.6-32.4,41-35.9,18.9-3.4,38.3,4.6,52.1,17.4,3.5,3.2,6.7,6.5,9.5,10.3l-6,.9c4.8-16.2-4.7-33.1-17.8-42.6-27.6-19.8-68.5-16.6-96.9.1-12.9,7.7-24.2,18.3-32.7,30.7-1.1,1.6-2.3,3.5-3.3,5.2-6.9,10.7-14.6,20.5-23,30.1-6.8,7.6-14.1,14.9-22.4,20.9-2,1.5-4.2,2.8-6.4,3.9-21.1,9.7-51.1,8.5-73.7,5.5h0Z"/>
  <path class="cls-1" d="m264,41.9c-15-11.6-34.6-18.4-53.5-15.6-18.8,2.8-34.9,14.6-47.6,28.1-13.2,14.2-21.9,31.8-34.5,46.7-14.6,17.8-33.4,35-57.1,38.2-22.9,2.6-45.8-2.7-68-7.7,19.3,1.9,38.5,4.7,57.8,3.4,12.6-.5,24.4-4.9,34.6-12.2,15.6-11,27.5-26.1,38.5-41.6,7.4-10.6,14.4-22.1,23.7-31.4,14-14.1,31.8-26.1,52-28,19.9-1.9,40,6.3,54,20.2h0Z"/>
  <path class="cls-1" d="m432.8,135.7c-68.7,3.3-137.4,7.2-206.2,5.6-12.7-.6-24.9-5.3-35.5-12.1-10.7-6.7-20.6-15.5-26.3-27-7.9-15.1-5.5-33.9,3.7-47.9,7.2-11,17.6-19.6,29.2-25.7,7.4-4,15.7-6.2,24.1-6.8l.3,4c-3.8.4-7.7,1.4-11.3,2.5-14.7,5-28.7,16.3-37,29.2-8.1,12.8-9.8,29.4-2.3,42.8,7.4,13.1,20.2,22.2,33.5,28.9,7,3.3,14.5,5.3,22.2,5.9,3.4.3,8.5.4,12,.6,64.3,2.9,129.4,2.1,193.8-.2h0Z"/>
</svg>